<?xml version="1.0" standalone="no"?><!DOCTYPE svg PUBLIC "-//W3C//DTD SVG 1.1//EN" "http://www.w3.org/Graphics/SVG/1.1/DTD/svg11.dtd"><svg t="1498572444880" class="icon" style="" viewBox="0 0 1024 1024" version="1.1" xmlns="http://www.w3.org/2000/svg" p-id="4094" xmlns:xlink="http://www.w3.org/1999/xlink" width="200" height="200"><defs><style type="text/css"></style></defs><path d="M231.414 399.325h112.441v-56.221c-0.453-4.703-0.051-23.294 0-28.11 0.879-85.387 78.783-140.552 168.662-140.552 82.909 0 162.352 58.898 168.662 146.087v22.576c-0.146 2.061-0.083 1.486 0 0.532v55.689h112.441v-84.331h-0.385c-7.693-140.953-130.431-252.994-280.718-252.994-155.251 0-281.104 119.562-281.104 267.049 0 4.746-0.256 9.372 0 14.055v56.221zM821.731 427.435h-618.428c-31.051 0-56.221 25.17-56.221 56.221v421.656c0 31.051 25.17 56.221 56.221 56.221h618.428c31.051 0 56.221-25.17 56.221-56.221v-421.656c0-31.051-25.17-56.221-56.221-56.221zM596.848 820.979h-168.662l65.062-86.749c-37.249-8.745-65.062-41.997-65.062-81.913 0-46.576 37.755-84.331 84.331-84.331 46.573 0 84.331 37.755 84.331 84.331 0 39.917-27.813 73.168-65.062 81.913l65.062 86.749z" p-id="4095" fill="#ffffff"></path></svg>
